<svg width="84" height="84" viewBox="0 0 84 84" fill="none" xmlns="http://www.w3.org/2000/svg">
<g filter="url(#filter0_d_473_992)">
<circle cx="42.1601" cy="26.1599" r="20.1599" fill="white"/>
</g>
<path d="M42.16 6C31.0258 6 22 15.0258 22 26.16C22 37.2942 31.0258 46.32 42.16 46.32C53.2942 46.32 62.32 37.2942 62.32 26.16C62.32 15.0258 53.2942 6 42.16 6ZM46.9354 19.9314H43.9051C43.546 19.9314 43.147 20.4039 43.147 21.0318V23.22H46.9375L46.3642 26.3406H43.147V35.7087H39.5707V26.3406H36.3262V23.22H39.5707V21.3846C39.5707 18.7512 41.3977 16.6113 43.9051 16.6113H46.9354V19.9314Z" fill="#444444"/>
<defs>
<filter id="filter0_d_473_992" x="0.400122" y="0" width="83.5199" height="83.5198" filterUnits="userSpaceOnUse" color-interpolation-filters="sRGB">
<feFlood flood-opacity="0" result="BackgroundImageFix"/>
<feColorMatrix in="SourceAlpha" type="matrix" values="0 0 0 0 0 0 0 0 0 0 0 0 0 0 0 0 0 0 127 0" result="hardAlpha"/>
<feOffset dy="15.6"/>
<feGaussianBlur stdDeviation="10.8"/>
<feColorMatrix type="matrix" values="0 0 0 0 0.0658854 0 0 0 0 0.0730469 0 0 0 0 0.1375 0 0 0 0.08 0"/>
<feBlend mode="normal" in2="BackgroundImageFix" result="effect1_dropShadow_473_992"/>
<feBlend mode="normal" in="SourceGraphic" in2="effect1_dropShadow_473_992" result="shape"/>
</filter>
</defs>
</svg>
