<svg width="84" height="84" viewBox="0 0 84 84" fill="none" xmlns="http://www.w3.org/2000/svg">
<g filter="url(#filter0_d_473_998)">
<circle cx="42.1601" cy="26.1599" r="20.1599" fill="white"/>
</g>
<path d="M48.46 26.16C48.46 27.8309 47.7963 29.4333 46.6148 30.6148C45.4333 31.7963 43.8309 32.46 42.16 32.46C40.4891 32.46 38.8867 31.7963 37.7052 30.6148C36.5238 29.4333 35.86 27.8309 35.86 26.16C35.86 25.8009 35.8978 25.4502 35.9629 25.11H33.76V33.5037C33.76 34.0875 34.2325 34.56 34.8163 34.56H49.5058C49.7856 34.5595 50.0537 34.4479 50.2514 34.2499C50.449 34.0518 50.56 33.7835 50.56 33.5037V25.11H48.3571C48.4222 25.4502 48.46 25.8009 48.46 26.16ZM42.16 30.36C42.7117 30.3599 43.258 30.2511 43.7676 30.0398C44.2772 29.8286 44.7403 29.519 45.1303 29.1288C45.5203 28.7386 45.8296 28.2754 46.0406 27.7657C46.2516 27.2559 46.3601 26.7096 46.36 26.1579C46.3599 25.6062 46.2511 25.06 46.0398 24.5503C45.8286 24.0407 45.519 23.5776 45.1288 23.1876C44.7386 22.7976 44.2754 22.4883 43.7657 22.2773C43.2559 22.0663 42.7096 21.9578 42.1579 21.9579C41.0437 21.9582 39.9753 22.4011 39.1876 23.1891C38.4 23.9772 37.9576 25.0458 37.9579 26.16C37.9582 27.2742 38.4011 28.3426 39.1891 29.1303C39.9772 29.9179 41.0458 30.3603 42.16 30.36ZM47.2 21.75H49.7179C49.8852 21.75 50.0456 21.6837 50.1641 21.5656C50.2826 21.4475 50.3494 21.2873 50.35 21.12V18.6021C50.35 18.4345 50.2834 18.2737 50.1649 18.1551C50.0463 18.0366 49.8855 17.97 49.7179 17.97H47.2C47.0324 17.97 46.8716 18.0366 46.753 18.1551C46.6345 18.2737 46.5679 18.4345 46.5679 18.6021V21.12C46.57 21.4665 46.8535 21.75 47.2 21.75ZM42.16 6C36.8132 6 31.6855 8.12399 27.9047 11.9047C24.124 15.6855 22 20.8132 22 26.16C22 31.5068 24.124 36.6345 27.9047 40.4153C31.6855 44.196 36.8132 46.32 42.16 46.32C44.8075 46.32 47.429 45.7986 49.8749 44.7854C52.3208 43.7723 54.5433 42.2873 56.4153 40.4153C58.2873 38.5433 59.7723 36.3208 60.7854 33.8749C61.7986 31.429 62.32 28.8075 62.32 26.16C62.32 23.5126 61.7986 20.891 60.7854 18.4451C59.7723 15.9992 58.2873 13.7768 56.4153 11.9047C54.5433 10.0327 52.3208 8.54772 49.8749 7.53459C47.429 6.52145 44.8075 6 42.16 6ZM52.66 34.3269C52.66 35.61 51.61 36.66 50.3269 36.66H33.9931C32.71 36.66 31.66 35.61 31.66 34.3269V17.9931C31.66 16.71 32.71 15.66 33.9931 15.66H50.3269C51.61 15.66 52.66 16.71 52.66 17.9931V34.3269Z" fill="#444444"/>
<defs>
<filter id="filter0_d_473_998" x="0.400122" y="0" width="83.5199" height="83.5198" filterUnits="userSpaceOnUse" color-interpolation-filters="sRGB">
<feFlood flood-opacity="0" result="BackgroundImageFix"/>
<feColorMatrix in="SourceAlpha" type="matrix" values="0 0 0 0 0 0 0 0 0 0 0 0 0 0 0 0 0 0 127 0" result="hardAlpha"/>
<feOffset dy="15.6"/>
<feGaussianBlur stdDeviation="10.8"/>
<feColorMatrix type="matrix" values="0 0 0 0 0.0658854 0 0 0 0 0.0730469 0 0 0 0 0.1375 0 0 0 0.08 0"/>
<feBlend mode="normal" in2="BackgroundImageFix" result="effect1_dropShadow_473_998"/>
<feBlend mode="normal" in="SourceGraphic" in2="effect1_dropShadow_473_998" result="shape"/>
</filter>
</defs>
</svg>
