<svg width="192" height="52" viewBox="0 0 192 52" fill="none" xmlns="http://www.w3.org/2000/svg">
<g clip-path="url(#clip0_473_1011)">
<path d="M36.2984 28.1479C42.6355 28.1479 47.7113 33.2238 47.7113 39.5916C47.7113 45.4057 43.1585 51.0045 36.2369 51.0045C29.5922 51.0045 24.7933 45.7133 24.7933 39.5608C24.7933 33.193 29.8998 28.1172 36.2984 28.1172V28.1479Z" fill="#EAC360"/>
<path d="M11.5052 28.1475C17.8423 28.1475 22.9181 33.2233 22.9181 39.5911C22.9181 45.4052 18.3652 51.004 11.4437 51.004C4.79895 51.0348 0 45.7129 0 39.5911C0 33.2233 5.10658 28.1475 11.5052 28.1475Z" fill="#F16365"/>
<path d="M72.5396 39.5916C72.6318 45.7749 67.433 50.9737 61.1267 50.9737C54.9434 50.9737 49.56 45.8364 49.7445 39.2225C49.9291 33.193 54.9742 27.9326 61.6189 28.1787C67.7098 28.4248 72.6011 33.5006 72.5088 39.5916H72.5396Z" fill="#65B26E"/>
<path d="M73.7365 23.441V0.430666C73.7365 0.430666 73.8595 0.369141 73.8903 0.369141C77.6741 0.369141 81.4578 0.369141 85.2416 0.430666C86.5336 0.430666 87.7949 0.769053 88.9331 1.41507C91.025 2.6148 91.7325 4.52208 91.5787 6.82927C91.4249 9.0134 90.3482 10.5823 88.2871 11.4129C88.1641 11.4744 88.0718 11.5052 87.8257 11.5975C88.9946 11.9974 89.9791 12.5203 90.7174 13.3817C93.6706 16.8578 91.8863 22.1182 87.3642 23.1642C86.5952 23.3487 85.8261 23.441 85.0571 23.4718C81.4271 23.4718 77.7971 23.4718 74.1671 23.4718C74.0441 23.4718 73.921 23.4718 73.7365 23.4718V23.441ZM79.366 18.8574C80.9656 18.8574 82.473 18.9189 84.0111 18.8574C85.2724 18.7959 86.0415 18.1499 86.2875 17.1655C86.749 15.3505 85.7031 13.9046 83.765 13.8124C82.35 13.7508 80.9349 13.8124 79.5198 13.8124C79.4583 13.8124 79.3967 13.8739 79.366 13.9046V18.9189V18.8574ZM79.366 9.72094C80.9041 9.72094 82.3807 9.78247 83.8573 9.72094C84.6571 9.69018 85.3339 9.2595 85.6723 8.42892C86.3798 6.67545 85.3954 5.04504 83.5189 4.92199C82.2269 4.86047 80.9656 4.92199 79.6736 4.92199C79.5813 4.92199 79.489 4.98352 79.366 4.98352V9.7517V9.72094Z" fill="white"/>
<path d="M109.301 0C116.192 0 121.145 5.38344 120.96 12.2435C120.775 18.7036 115.761 23.8717 108.963 23.7179C102.533 23.5641 97.3959 18.4267 97.5804 11.2898C97.765 5.01429 102.841 0 109.301 0ZM103.302 11.8436C103.364 12.4588 103.395 13.1048 103.518 13.7201C104.041 16.5195 106.163 18.3344 108.963 18.4575C111.916 18.5806 114.192 16.9501 114.961 14.1508C115.3 12.8895 115.361 11.6282 115.115 10.3362C114.715 8.05977 113.638 6.27555 111.331 5.56801C108.993 4.86048 106.778 5.13734 105.025 6.98309C103.733 8.33664 103.364 10.0286 103.333 11.8436H103.302Z" fill="white"/>
<path d="M49.7437 0.431044C49.7437 0.431044 49.836 0.369519 49.8975 0.369519C53.589 0.400282 57.3113 0.277232 60.972 0.523332C65.894 0.830957 68.8165 5.32228 67.3399 9.99818C66.6631 12.1208 65.1557 13.4436 63.0946 14.1819C62.8793 14.2742 62.6332 14.3357 62.2948 14.428C63.2177 15.9353 64.1098 17.4119 64.9712 18.8885C65.8633 20.3651 66.7554 21.8725 67.7398 23.4722H66.8784C65.3095 23.4722 63.7407 23.4722 62.1718 23.4722C61.6796 23.4722 61.4027 23.3491 61.1566 22.8877C59.7723 20.4267 58.3572 17.9964 56.9421 15.5354C56.4499 14.6433 56.4192 14.6433 55.281 14.8279V23.3799H49.6822V0.431044H49.7437ZM55.3733 10.8903C56.696 10.8903 57.9573 10.8903 59.1878 10.8903C59.3724 10.8903 59.5877 10.8595 59.7723 10.798C61.2489 10.4904 61.9564 9.62903 61.9564 8.09091C61.9564 6.52202 61.2181 5.38381 59.8031 5.22999C58.3572 5.07618 56.8806 5.19923 55.3733 5.19923V10.8903Z" fill="white"/>
<path d="M156.364 42.5756V51.1583H150.796V28.1479C150.981 28.1479 151.165 28.1172 151.35 28.1172C154.518 28.1172 157.687 28.1172 160.886 28.1172C163.224 28.1172 165.377 28.7632 167.008 30.5474C170.484 34.3312 168.792 40.4837 163.901 41.9911C163.747 42.0218 163.624 42.0834 163.409 42.1756C165.224 45.1904 167.008 48.1743 168.884 51.2506C167.162 51.2506 165.593 51.1891 164.024 51.2506C163.009 51.3121 162.455 50.9737 161.963 50.0816C160.763 47.8052 159.379 45.621 158.148 43.3446C157.748 42.6063 157.256 42.3602 156.426 42.6063L156.364 42.5756ZM156.395 32.8546V38.5149C157.933 38.5149 159.41 38.6072 160.886 38.4841C161.44 38.4226 162.086 38.0227 162.455 37.5613C163.193 36.6384 163.163 35.5002 162.732 34.3927C162.301 33.3468 161.409 32.9161 160.363 32.8546C159.071 32.7931 157.748 32.8546 156.395 32.8546Z" fill="white"/>
<path d="M129.878 28.271C131.97 28.271 134 28.271 136.061 28.271C136.246 28.271 136.492 28.5786 136.554 28.794C138.215 33.2238 139.845 37.6536 141.476 42.1141C142.491 44.9135 143.537 47.6821 144.552 50.4815C144.613 50.6969 144.675 50.8814 144.767 51.1583C144.521 51.1583 144.367 51.2198 144.183 51.2198C142.583 51.2198 141.014 51.2198 139.415 51.2198C138.922 51.2198 138.738 51.0352 138.584 50.6046C138.246 49.5586 137.876 48.5127 137.538 47.4668C137.415 47.1284 137.261 46.9746 136.892 46.9746C134.339 46.9746 131.816 46.9746 129.263 46.9746C128.863 46.9746 128.678 47.1284 128.586 47.4976C128.248 48.605 127.879 49.6817 127.479 50.7584C127.417 50.943 127.14 51.1891 126.986 51.1891C125.171 51.2198 123.387 51.1891 121.418 51.1891C124.249 43.4984 127.079 35.8693 129.878 28.2402V28.271ZM133.17 34.5465C133.17 34.5465 133.077 34.5465 133.047 34.5465C132.124 37.2536 131.201 39.9915 130.247 42.7294H135.938C135.015 39.9607 134.093 37.2844 133.17 34.5773V34.5465Z" fill="white"/>
<path d="M37.13 0.369141H42.7288C42.7288 0.584478 42.7596 0.799816 42.7596 1.01515C42.7596 5.13733 42.8211 9.22874 42.7596 13.3509C42.7596 14.7352 42.6058 16.2118 42.1751 17.5346C41.0676 21.0723 38.4836 23.0103 34.8844 23.5948C33.1309 23.8717 31.3775 23.8102 29.6548 23.2564C26.1786 22.149 24.3636 19.6572 23.7484 16.1503C23.6253 15.4428 23.5945 14.6737 23.5945 13.9354C23.5945 9.69018 23.5945 5.44495 23.5945 1.19973C23.5945 0.953628 23.5945 0.676766 23.5945 0.399903H29.1933V1.19973C29.1933 5.38343 29.1933 9.59789 29.1933 13.7816C29.1933 14.3046 29.2241 14.8275 29.3471 15.3197C29.8393 17.5039 31.2236 18.4575 33.5924 18.3344C35.4689 18.2422 36.8224 16.9194 37.0378 14.889C37.0993 14.2738 37.1608 13.6278 37.1608 13.0125C37.1608 9.07493 37.1608 5.13733 37.1608 1.19973C37.1608 0.953628 37.1608 0.676766 37.1608 0.369141H37.13Z" fill="white"/>
<path d="M77.9222 44.2366H83.7979C83.9209 44.6365 84.0132 44.9749 84.1363 45.3133C84.7208 46.7284 86.505 47.4359 87.9201 46.7899C89.2736 46.1746 89.5505 44.2674 88.3815 43.3137C87.7662 42.7908 86.9972 42.4524 86.2281 42.114C84.5977 41.4372 82.9365 40.8835 81.3369 40.1452C78.9682 39.0377 77.7992 37.0689 77.7992 34.4541C77.7992 31.9008 78.8759 29.9013 81.1831 28.7938C84.5362 27.1942 87.9816 27.1942 91.2732 28.9784C93.4265 30.1166 94.4417 32.0854 94.657 34.5772H88.6276C88.5661 34.3618 88.5045 34.1465 88.443 33.9312C87.9816 32.5161 86.6588 31.8393 85.213 32.2392C83.7364 32.6699 83.2749 34.5464 84.4439 35.6231C84.9053 36.0538 85.4591 36.3614 86.0435 36.6075C87.3971 37.1612 88.8122 37.6534 90.1657 38.2071C90.8117 38.4532 91.4577 38.7609 92.0422 39.13C96.1952 41.6833 96.1336 47.7435 91.9499 50.2353C88.5968 52.2348 83.0596 51.7426 80.1064 49.1586C78.7221 47.9589 77.83 45.9593 77.8915 44.2674L77.9222 44.2366Z" fill="white"/>
<path d="M106.13 32.5773H99.9779V28.1475H118.005V32.5465H111.791V51.1886H106.13V32.5773Z" fill="white"/>
<path d="M18.0884 0.399902V4.8297H11.8743V23.4103H6.24479V4.86047H0V0.399902H18.0884Z" fill="white"/>
<path d="M185.129 51.1891H179.499V32.6085H173.316V28.1787H191.374V32.5777H185.16V51.1891H185.129Z" fill="white"/>
</g>
<defs>
<clipPath id="clip0_473_1011">
<rect width="191.343" height="51.4349" fill="white"/>
</clipPath>
</defs>
</svg>
