<svg width="84" height="84" viewBox="0 0 84 84" fill="none" xmlns="http://www.w3.org/2000/svg">
<g filter="url(#filter0_d_473_995)">
<circle cx="42.1601" cy="26.1599" r="20.1599" fill="white"/>
</g>
<path d="M42.16 6C31.0258 6 22 15.0258 22 26.16C22 37.2942 31.0258 46.32 42.16 46.32C53.2942 46.32 62.32 37.2942 62.32 26.16C62.32 15.0258 53.2942 6 42.16 6ZM50.3605 22.5144C50.3689 22.6866 50.371 22.8588 50.371 23.0268C50.371 28.2768 46.3789 34.3269 39.0751 34.3269C36.9169 34.3305 34.8036 33.7107 32.9893 32.5419C33.298 32.5797 33.6151 32.5944 33.9364 32.5944C35.797 32.5944 37.5085 31.9623 38.8672 30.8955C38.0392 30.8792 37.2369 30.6051 36.5721 30.1112C35.9074 29.6173 35.4132 28.9283 35.1586 28.1403C35.7532 28.2534 36.3658 28.2297 36.9499 28.071C36.0512 27.8893 35.243 27.4023 34.6624 26.6927C34.0818 25.9831 33.7644 25.0945 33.7642 24.1776V24.1293C34.2997 24.4254 34.9129 24.606 35.5639 24.627C34.7214 24.0662 34.125 23.2046 33.8966 22.2186C33.6682 21.2326 33.8252 20.1965 34.3354 19.3224C35.3328 20.5488 36.5766 21.5521 37.9864 22.2673C39.3961 22.9824 40.9404 23.3936 42.5191 23.4741C42.3184 22.6222 42.4048 21.7278 42.7648 20.93C43.1249 20.1322 43.7384 19.4757 44.5101 19.0626C45.2817 18.6494 46.1682 18.5028 47.0318 18.6455C47.8953 18.7882 48.6876 19.2122 49.2853 19.8516C50.174 19.6758 51.0262 19.3498 51.8053 18.8877C51.5091 19.8078 50.889 20.5891 50.0602 21.0864C50.8474 20.9916 51.616 20.78 52.3408 20.4585C51.8084 21.2563 51.1378 21.9525 50.3605 22.5144Z" fill="#444444"/>
<defs>
<filter id="filter0_d_473_995" x="0.400122" y="0" width="83.5199" height="83.5198" filterUnits="userSpaceOnUse" color-interpolation-filters="sRGB">
<feFlood flood-opacity="0" result="BackgroundImageFix"/>
<feColorMatrix in="SourceAlpha" type="matrix" values="0 0 0 0 0 0 0 0 0 0 0 0 0 0 0 0 0 0 127 0" result="hardAlpha"/>
<feOffset dy="15.6"/>
<feGaussianBlur stdDeviation="10.8"/>
<feColorMatrix type="matrix" values="0 0 0 0 0.0658854 0 0 0 0 0.0730469 0 0 0 0 0.1375 0 0 0 0.08 0"/>
<feBlend mode="normal" in2="BackgroundImageFix" result="effect1_dropShadow_473_995"/>
<feBlend mode="normal" in="SourceGraphic" in2="effect1_dropShadow_473_995" result="shape"/>
</filter>
</defs>
</svg>
